<?xml version="1.0" encoding="UTF-8" standalone="no"?>
<!-- Created with Inkscape (http://www.inkscape.org/) -->

<svg
   xmlns:dc="http://purl.org/dc/elements/1.1/"
   xmlns:cc="http://creativecommons.org/ns#"
   xmlns:rdf="http://www.w3.org/1999/02/22-rdf-syntax-ns#"
   xmlns:svg="http://www.w3.org/2000/svg"
   xmlns="http://www.w3.org/2000/svg"
   xmlns:sodipodi="http://sodipodi.sourceforge.net/DTD/sodipodi-0.dtd"
   xmlns:inkscape="http://www.inkscape.org/namespaces/inkscape"
   width="210mm"
   height="297mm"
   viewBox="0 0 744.09448819 1052.3622047"
   id="svg2"
   version="1.1"
   inkscape:version="0.91 r13725"
   inkscape:export-filename="C:\Users\John Pastor\Desktop\path3425.png"
   inkscape:export-xdpi="134.61456"
   inkscape:export-ydpi="134.61456"
   sodipodi:docname="drawing.svg">
  <defs
     id="defs4" />
  <sodipodi:namedview
     id="base"
     pagecolor="#ffffff"
     bordercolor="#666666"
     borderopacity="1.0"
     inkscape:pageopacity="0.0"
     inkscape:pageshadow="2"
     inkscape:zoom="0.49497475"
     inkscape:cx="592.27096"
     inkscape:cy="506.43341"
     inkscape:document-units="px"
     inkscape:current-layer="layer1"
     showgrid="false"
     inkscape:window-width="690"
     inkscape:window-height="405"
     inkscape:window-x="393"
     inkscape:window-y="198"
     inkscape:window-maximized="0"
     inkscape:snap-text-baseline="true" />
  <metadata
     id="metadata7">
    <rdf:RDF>
      <cc:Work
         rdf:about="">
        <dc:format>image/svg+xml</dc:format>
        <dc:type
           rdf:resource="http://purl.org/dc/dcmitype/StillImage" />
        <dc:title></dc:title>
      </cc:Work>
    </rdf:RDF>
  </metadata>
  <g
     inkscape:label="Layer 1"
     inkscape:groupmode="layer"
     id="layer1">
    <path
       style="fill:none;fill-rule:evenodd;stroke:#000000;stroke-width:1px;stroke-linecap:butt;stroke-linejoin:miter;stroke-opacity:1"
       d="m 337.14286,192.3622 c 105.71428,602.85715 254.28571,140 254.28571,140 l -88.57143,631.42858 c 0,0 -165.71428,-785.71429 -268.57143,-657.14286 -102.85714,128.57143 140,711.42858 268.57143,651.42857 128.57143,-60 340,-474.28571 85.71429,-622.85714 C 334.28571,186.64792 242.85714,303.79078 234.28571,300.93363"
       id="path3336"
       inkscape:connector-curvature="0" />
    <path
       style="fill:#916f6f"
       d="M 461.37601,955.98839 C 433.08677,944.92949 392.80665,903.61467 359.818,851.82156 321.16512,791.13546 279.68795,701.67944 253.89459,623.3709 227.33882,542.74767 214.12704,478.51244 211.95795,419.47627 c -1.88179,-51.21644 4.37457,-83.69894 20.68131,-107.37559 8.63306,-12.53482 21.34698,-19.89812 30.5004,-17.66438 50.27177,12.26799 118.02097,180.25727 193.82899,480.61367 26.46028,104.83741 43.46252,181.44861 40.66335,183.22705 -4.557,2.89527 -26.54594,1.50724 -36.25599,-2.28863 z"
       id="path3376"
       inkscape:connector-curvature="0" />
    <path
       style="fill:#d4aa00"
       d="M 459.19699,498.47281 C 438.48118,490.83721 423.44133,473.35587 405.13845,435.63872 398.6679,422.3047 388.84007,397.758 383.29884,381.09048 373.5666,351.81682 352.73097,272.12722 352.73097,264.1782 c 0,-3.68556 1.14036,-3.81726 21.59922,-2.49456 39.55665,2.5574 79.86731,12.51605 124.8729,30.84955 27.98773,11.4011 85.9814,41.05828 87.37139,44.68055 0.57534,1.4993 -1.49576,9.25751 -4.60244,17.24045 -40.12473,103.10479 -86.42533,157.41672 -122.77505,144.01862 z"
       id="path3378"
       inkscape:connector-curvature="0" />
    <path
       style="fill:#00ff00"
       d="m 506.23393,952.33174 c -0.0788,-2.96768 85.4105,-611.66002 86.00068,-612.33345 1.55859,-1.77848 27.78349,18.26955 42.96937,32.8486 62.8052,60.29551 84.83904,152.91448 62.76035,263.81218 -16.14497,81.09347 -54.97569,167.66031 -106.3099,237.00076 -17.84842,24.10901 -55.21659,62.07753 -71.58051,72.7305 -11.81604,7.69229 -13.77122,8.53165 -13.83999,5.94141 z"
       id="path3380"
       inkscape:connector-curvature="0" />
    <path
       style="fill:#00ffff"
       d="M 493.30647,913.94106 C 481.20191,859.11998 451.81229,741.03512 434.85428,679.08548 397.34517,542.06023 364.05584,444.36275 332.41813,378.456 316.00101,344.25633 307.05739,329.12291 293.96709,313.39333 282.6623,299.80924 273.46618,293.60556 261.64222,291.58706 l -8.52193,-1.4548 17.557,-8.69984 c 18.29984,-9.06793 46.49895,-17.19183 66.39451,-19.12765 10.74157,-1.04515 11.68533,-0.79931 12.551,3.2694 0.51482,2.41974 5.05623,21.35547 10.09201,42.0794 41.69405,171.58503 92.60666,230.89997 150.94992,175.86189 22.97478,-21.67325 44.11245,-56.33455 66.77445,-109.49605 5.44727,-12.77843 9.49566,-20.5061 8.99642,-17.17259 -0.49924,3.3335 -19.39226,138.1131 -41.98448,299.51023 -22.59223,161.39712 -41.56075,293.44711 -42.15225,293.44442 -0.59151,-0.002 -4.6381,-16.13987 -8.9924,-35.86041 z"
       id="path3382"
       inkscape:connector-curvature="0" />
    <path
       style="fill:#ff00ff"
       d="m 456.07719,496.18457 c -19.2853,-8.37432 -38.34709,-33.7076 -55.83045,-74.19906 -12.67014,-29.34407 -19.91942,-51.51347 -33.42591,-102.22151 -12.32078,-46.25649 -14.30111,-56.34883 -11.28341,-57.5036 1.23437,-0.47235 12.24482,-0.0308 24.46767,0.98124 54.41935,4.50584 117.67055,25.52998 182.21301,60.56602 17.26775,9.37358 22.84796,13.38131 22.84796,16.40954 0,11.81593 -32.80281,80.75923 -52.2775,109.8742 -13.57086,20.28866 -33.07216,39.68792 -45.63181,45.39306 -9.77206,4.43889 -21.8433,4.7108 -31.07956,0.70011 z"
       id="path3384"
       inkscape:connector-curvature="0" />
    <path
       style="fill:#0000ff"
       d="M 474.95943,957.85184 C 461.0688,955.71777 454.95227,953.04346 440.73738,942.88908 401.09556,914.57101 356.63455,852.92992 315.30527,768.98906 263.42267,663.61412 227.84213,553.02505 216.2898,461.2357 c -4.35048,-34.56681 -3.25456,-95.90154 2.0457,-114.49041 7.86436,-27.58163 22.80657,-48.08878 36.97597,-50.74697 39.56232,-7.42194 96.94598,109.67776 159.01751,324.49831 30.8599,106.80155 77.21257,293.25426 81.07612,326.12698 1.17517,9.99902 0.95423,10.74572 -3.53515,11.94736 -2.63379,0.70496 -5.24326,1.18075 -5.79884,1.05729 -0.55559,-0.12344 -5.55584,-0.92284 -11.11168,-1.77642 z"
       id="path3386"
       inkscape:connector-curvature="0" />
    <flowRoot
       xml:space="preserve"
       id="flowRoot3388"
       style="font-style:normal;font-weight:normal;font-size:40px;line-height:125%;font-family:sans-serif;letter-spacing:0px;word-spacing:0px;fill:#000000;fill-opacity:1;stroke:none;stroke-width:1px;stroke-linecap:butt;stroke-linejoin:miter;stroke-opacity:1"
       transform="translate(-32.612039,16.771593)"><flowRegion
         id="flowRegion3390"><rect
           id="rect3392"
           width="682.85712"
           height="100"
           x="65.714287"
           y="69.505058" /></flowRegion><flowPara
         id="flowPara3394">Abstract Scalable Vector Graphics</flowPara></flowRoot>    <path
       style="fill:#0000ff"
       id="path3401"
       d="m 240.21607,386.94694 c -1.49937,-1.38703 -3.42388,-3.25916 -5.10406,-4.22444 -4.78606,-2.74963 -13.98878,-6.35773 -18.61225,-8.14257 -8.96362,-3.46031 -19.52016,-7.13044 -28.52328,-10.3248 -24.40763,-8.43188 -48.98249,-16.35402 -73.19411,-25.33948 -3.04916,-0.70239 -10.42668,-4.80017 -13.82346,-3.75642 -0.82512,0.25354 -2.697604,2.09337 -1.902897,1.7564 5.492937,-2.32909 10.320997,-6.37199 16.117887,-7.78376 1.38386,-0.33703 -0.73675,2.7517 -1.10512,4.12755 -1.80098,14.523 -1.31882,29.23815 -1.26745,43.84564 -0.40676,15.58365 1.67227,31.01264 4.83838,46.22768 2.05101,8.4315 4.20519,16.85043 6.58863,25.19518 2.3606,9.95024 -6.06308,9.3177 -19.47332,14.39702 -1.10347,0.41795 -2.00633,-1.24263 -3.01541,-1.85427 -6.829548,-4.13965 -2.076179,-1.08898 -9.96924,-6.38662 -6.578481,-4.2314 -12.871767,-8.89039 -19.377176,-13.2282 -2.649669,-1.76679 -6.236092,-4.24814 -9.429154,-5.24661 -0.98146,-0.30691 -2.042734,-0.23886 -3.064101,-0.35829 -7.503527,6.21447 4.536471,-3.99242 14.327166,-6.62003 1.373767,-0.36869 -0.909898,2.71343 -1.099104,4.12317 -0.253357,1.88771 -0.271564,3.80569 -0.220594,5.70964 0.167219,6.24636 0.828822,8.48363 1.955678,14.7664 4.930137,19.67941 12.77989,38.50112 20.48238,57.22559 8.234895,22.01308 18.336905,43.22814 27.866505,64.69282 1.69608,5.51003 6.35078,11.99376 6.96819,17.85482 0.99839,9.47782 -19.45893,14.34618 -21.19276,15.04875 -1.75325,0.71044 -3.70037,-0.78848 -5.55056,-1.18272 -16.360202,-5.00173 -31.491127,-13.15953 -47.399203,-19.32725 -1.668276,-0.31733 -3.308641,-0.86956 -5.004828,-0.95199 -4.460292,-0.21678 -28.455471,9.08448 11.979913,-7.66893 0.971863,-0.40266 -1.409565,1.59794 -1.863816,2.54679 -1.327213,2.77232 -1.52683,6.03428 -1.956895,8.99152 -0.560327,7.30241 -0.03763,14.62106 2.213772,21.61659 1.535586,4.77135 2.638175,6.87364 4.715561,11.51126 4.972237,10.61775 11.003034,20.71147 17.496064,30.4615 3.998657,5.57072 7.451997,11.50708 10.390647,17.69894 1.825968,4.36647 3.532738,8.77609 5.537503,13.06525 3.696392,8.39929 8.709592,16.12478 13.666772,23.81763 8.69847,12.64564 18.79445,24.23232 28.42633,36.1553 2.63004,3.25564 15.97433,20.08743 18.57535,23.36536 9.62962,12.67478 19.93728,24.82598 29.39281,37.6341 11.11174,15.05155 -1.30823,-1.35667 7.95798,10.81662 0.87198,0.75893 1.56437,1.79667 2.61594,2.27678 0.48673,0.22223 1.04144,-0.24613 1.56216,-0.36919 -5.69272,2.88112 -11.06427,6.51241 -17.07817,8.64338 -0.99515,0.35262 0.85354,-1.94574 1.0841,-2.97603 0.68658,-3.06812 0.827,-7.61129 1.01549,-10.63216 -0.026,-17.17463 -2.47848,-34.22535 -5.04844,-51.16954 -1.26523,-7.31696 -2.42431,-14.66527 -4.08989,-21.90642 -0.91634,-3.9838 -2.0791,-7.88348 -2.89715,-11.88996 -0.51604,-8.75307 -0.77492,-4.61639 18.81668,-12.86448 1.02061,-0.42968 1.71327,1.4045 2.53974,2.14154 4.73821,4.22547 9.32083,8.64504 13.92719,13.01153 13.55406,13.32752 28.69407,24.84693 44.251,35.70891 4.50704,2.5047 8.78689,7.33996 13.71167,9.16225 0.75674,0.28001 1.64101,0.47898 2.40942,0.23283 0.57422,-0.18394 1.71729,-1.63265 1.17007,-1.37947 -5.81983,2.69259 -11.41762,5.8412 -17.12643,8.7618 0.31611,-10.35567 -3.20043,-20.33485 -6.01358,-30.16635 -0.54393,-1.78662 -1.08802,-3.57318 -1.63179,-5.35984 -2.01993,-6.63678 -0.97825,-3.3854 -3.12929,-9.80496 -1.21656,-3.63068 -2.44899,-7.07371 -3.00664,-10.8627 1.38094,-8.93806 0.31248,-5.18008 20.35715,-12.21762 1.32472,-0.4651 2.45794,1.36127 3.6425,2.11493 6.39209,4.06692 12.30945,8.84476 18.28142,13.48629 2.84435,2.22739 5.71583,4.42058 8.53307,6.68217 13.17557,10.57693 6.29431,5.59547 21.01533,16.69964 13.01874,9.82013 26.25458,19.34424 39.25827,29.18706 12.19743,9.10598 24.05373,18.65809 35.55894,28.62092 0,0 -16.8153,10.41033 -16.8153,10.41033 l 0,0 c -10.80638,-10.40344 -22.1604,-20.21492 -34.06019,-29.35766 -13.00512,-9.93092 -12.76583,-9.88823 -26.16314,-19.54686 -8.11289,-5.84889 -17.31878,-12.16255 -25.3471,-18.19243 -3.27475,-2.45957 -6.41853,-5.08965 -9.67593,-7.57215 -2.89746,-2.20821 -5.85796,-4.33246 -8.78694,-6.49868 -6.07266,-4.33929 -12.20237,-9.29786 -18.98984,-12.5376 -1.12151,-0.5353 -4.43079,-0.36945 -3.52337,-1.21851 4.71481,-4.41159 10.79379,-7.08944 16.19069,-10.63416 -0.30852,0.318 -0.61704,0.63599 -0.92556,0.95399 -0.0434,4.16653 1.03743,6.67352 2.31911,10.6494 1.63808,5.08144 3.1679,10.18729 4.7004,15.30217 2.82315,10.14115 6.18036,20.22884 7.0728,30.78272 -6.06913,4.48964 -11.95253,9.24186 -18.20738,13.46891 -1.08257,0.73161 -3.73413,-0.45478 -4.42217,-0.83185 -4.76634,-2.61216 -8.53562,-6.80766 -13.06533,-9.75109 -15.23487,-11.41546 -30.4745,-22.87548 -44.42892,-35.86151 -3.71203,-3.25675 -7.01193,-6.24114 -10.84927,-9.30107 -1.23443,-0.98435 -2.44518,-2.01303 -3.78752,-2.84424 -0.60255,-0.37312 -2.55434,-0.30146 -1.99463,-0.73621 18.32762,-14.23598 18.89836,-17.15803 16.59842,-9.5825 0.46615,4.13403 1.44645,8.07944 2.24128,12.16111 1.43618,7.37529 2.35828,14.83697 3.64421,22.23773 2.50901,16.98871 4.98296,34.03904 5.8053,51.20652 -0.0808,3.58443 -0.1,7.17065 -0.39658,10.74678 -0.10175,1.22676 0.52824,2.91209 -0.44483,3.66604 -1.62496,1.25903 -15.6566,15.77182 -21.45503,10.8292 -0.93298,-0.79528 -1.59406,-1.86299 -2.3911,-2.79448 -4.17114,-6.27006 -8.19496,-12.62947 -12.59213,-18.74761 -7.45386,-10.37116 -15.34851,-20.42376 -23.09785,-30.57223 -6.56283,-8.26852 -11.92269,-15.13549 -18.70653,-23.22609 -9.93468,-11.84836 -20.4446,-23.23488 -29.740424,-35.61007 -5.344377,-7.55926 -10.688577,-15.21233 -14.645869,-23.61239 -2.045613,-4.27764 -3.849309,-8.67057 -5.547878,-13.09329 -2.698144,-6.18313 -6.054263,-12.07468 -9.823861,-17.66548 -6.364875,-9.94965 -12.23961,-20.24029 -17.342614,-30.89502 -2.050434,-4.36038 -3.523468,-7.15664 -5.059833,-11.69068 -2.436864,-7.19155 -2.949681,-14.73717 -2.628631,-22.2796 0.169929,-2.03286 0.659014,-11.55351 2.701877,-12.9563 5.998816,-4.11928 15.054751,-13.20757 24.153441,-11.53706 1.661528,0.30506 3.240997,0.9544 4.861496,1.4316 15.497832,6.88052 30.689556,14.90445 47.336866,18.70877 10.31207,0.32687 9.84822,-0.73555 -9.17877,9.94489 -0.79542,0.44649 1.3135,-1.45874 1.36943,-2.36919 0.0966,-1.57223 -0.50047,-3.11847 -0.93939,-4.63127 -0.74805,-2.57826 -4.23853,-11.403 -5.01457,-13.40732 -8.952186,-21.73021 -18.681437,-43.12196 -27.603381,-64.86423 -7.865228,-18.77073 -15.741024,-37.633 -21.235078,-57.26136 -1.440193,-6.88658 -2.932425,-13.73073 -2.716581,-20.81995 0.04751,-1.56035 -0.644259,-3.60567 0.511329,-4.65523 14.109338,-12.81471 12.181095,-12.12886 21.768818,-13.68286 1.039186,0.32302 2.126765,0.51898 3.117559,0.96907 3.019146,1.37151 6.504834,3.95853 9.108659,5.79706 6.374089,4.50067 12.675515,9.11704 19.407155,13.08584 3.60142,2.12575 6.67115,4.12298 10.47183,5.77422 0.88859,0.38605 3.51139,0.28771 2.76275,0.90265 -5.06977,4.16433 -11.14046,6.93439 -16.6467,10.50168 -0.31206,0.20217 0.94579,-0.0345 1.04386,-0.39317 0.19098,-0.6984 -0.23343,-1.42913 -0.35015,-2.1437 -2.13301,-8.52726 -3.87432,-17.16296 -5.86508,-25.72417 -3.083359,-15.37756 -5.145015,-30.98214 -4.760821,-46.70459 -0.142066,-14.61629 -0.570974,-29.26648 0.337068,-43.86391 0.235808,-1.49561 -0.400948,-3.45534 0.707425,-4.48684 5.753958,-5.35483 12.525878,-9.51343 19.048838,-13.89902 0.73038,-0.49107 1.68357,-0.63867 2.56366,-0.63175 4.50328,0.0354 9.13439,3.56188 13.27944,4.73294 23.51196,9.85558 47.64918,18.06138 71.80751,26.1774 4.40076,1.49036 24.36552,8.23807 29.21071,9.92972 4.2129,1.47089 15.57802,5.40941 20.22982,7.70621 1.86282,0.91977 4.26243,2.95815 5.97784,4.34369 0,0 -18.20081,10.87829 -18.20081,10.87829 z"
       inkscape:connector-curvature="0" />
    <path
       sodipodi:type="star"
       style="fill:#ff0000"
       id="path3419"
       sodipodi:sides="15"
       sodipodi:cx="325.71429"
       sodipodi:cy="738.07648"
       sodipodi:r1="324.71338"
       sodipodi:r2="3.2471337"
       sodipodi:arg1="-2.9467855"
       sodipodi:arg2="-2.737346"
       inkscape:flatsided="false"
       inkscape:rounded="0.02"
       inkscape:randomized="0.002"
       d="M 7.2867055,675.34272 C 8.5137736,669.0277 320.38044,743.20315 322.91856,737.29397 325.45668,731.38479 56.318839,556.02569 60.025564,550.76331 63.732289,545.50093 318.66834,739.68795 323.3966,735.32272 c 4.72826,-4.36523 -170.08985,-272.9207 -164.56937,-276.21973 5.52047,-3.29903 159.48634,277.45464 165.56677,275.37803 6.08042,-2.0766 -43.41856,-317.42848 -37.03794,-318.19864 6.38062,-0.77016 31.64703,317.85486 38.05337,318.44223 6.40635,0.58737 89.96534,-308.16681 96.11463,-306.27051 6.14929,1.89631 -99.61744,303.92651 -94.00409,307.06962 5.61335,3.14311 207.40956,-246.50374 212.26002,-242.27516 4.85047,4.22859 -215.08274,238.22614 -211.2332,243.37501 3.84954,5.14886 289.15705,-140.2776 291.86399,-134.44154 2.70695,5.83605 -292.44024,129.2327 -291.02124,135.50957 1.41899,6.27686 321.3298,-11.40931 321.43714,-4.98377 0.10734,6.42555 -321.30548,-0.69555 -322.54339,5.61564 -1.23791,6.31119 298.02924,121.30005 295.49762,127.20905 -2.53163,5.90899 -291.1738,-131.31138 -294.86841,-126.04774 -3.69461,5.26364 222.76714,232.91853 218.05404,237.29646 -4.71311,4.37793 -213.92834,-239.16037 -219.44123,-235.85655 -5.5129,3.30382 108.86977,301.94811 102.78328,304.03451 -6.08649,2.0863 -98.30066,-304.80703 -104.68387,-304.05709 -6.38321,0.74995 -22.86087,320.88999 -29.27052,320.30039 -6.40964,-0.5895 34.8296,-317.6971 28.68524,-319.60217 C 318.89507,739.69527 173.36575,1025.2498 167.74143,1022.1239 162.11711,1018.998 327.83547,744.1253 322.99394,739.90152 318.15241,735.67775 69.822007,938.50311 65.974471,933.35737 62.126934,928.21162 325.40514,744.93582 322.71816,739.09613 320.03119,733.25645 10.582775,816.31024 9.1355569,810.03885 7.6883389,803.76747 322.00205,744.07001 321.92745,737.63706 321.85285,731.20411 6.0596375,681.65773 7.2867055,675.34272 Z"
       inkscape:transform-center-x="-3.3406285"
       inkscape:transform-center-y="0.66569231" />
    <path
       sodipodi:type="star"
       style="fill:#ff00ff"
       id="path3423"
       sodipodi:sides="45"
       sodipodi:cx="510"
       sodipodi:cy="630.93365"
       sodipodi:r1="193.95981"
       sodipodi:r2="1.9395981"
       sodipodi:arg1="2.3666108"
       sodipodi:arg2="2.436424"
       inkscape:flatsided="false"
       inkscape:rounded="0.02"
       inkscape:randomized="0.002"
       d="M 371.60909,766.49476 C 368.91533,763.75704 510.95221,635.257 508.46848,632.33048 505.98475,629.40396 355.96233,749.1959 353.68364,746.1079 c -2.27868,-3.08801 156.65595,-111.20255 154.6015,-114.45148 -2.05446,-3.24893 -167.19114,94.57481 -169.01392,91.19805 -1.82277,-3.37677 170.69855,-87.42246 169.11728,-90.9182 -1.58127,-3.49574 -178.8754,70.39552 -180.22151,66.79636 -1.34611,-3.59916 181.12935,-63.62067 180.04741,-67.30305 -1.08193,-3.68237 -187.09631,44.69758 -187.91298,40.94219 -0.81666,-3.75539 188.49349,-37.02256 187.93813,-40.8258 -0.55537,-3.80324 -191.51375,18.13894 -191.81281,14.3095 -0.29905,-3.82944 191.93443,-11.23193 191.91289,-15.07141 -0.0215,-3.83948 -192.20097,-7.84894 -191.95086,-11.67922 0.2501,-3.83028 191.14042,15.29919 191.63771,11.49334 0.4973,-3.80586 -188.75388,-34.70038 -187.97879,-38.46064 0.77509,-3.76026 186.78617,42.01084 187.82367,38.31115 1.03749,-3.69968 -181.93782,-61.15127 -180.65704,-64.76964 1.28078,-3.61837 179.11982,67.90304 180.65973,64.38243 1.5399,-3.52062 -171.42705,-85.57307 -169.64004,-88.97055 1.787,-3.39748 168.11886,92.3769 170.14174,89.11068 2.02288,-3.26622 -158.04035,-108.68008 -155.80854,-111.8051 2.23181,-3.12502 153.41222,114.6251 155.86298,111.66506 2.45077,-2.96003 -141.88444,-130.2524 -139.23592,-133.03226 2.64851,-2.77986 137.04702,135.22985 139.88233,132.64386 2.83532,-2.58599 -122.38726,-148.41749 -119.37102,-150.79329 3.01623,-2.3758 115.68328,152.44006 118.84502,150.26515 3.16174,-2.17491 -100.14724,-163.55926 -96.83795,-165.50835 3.30928,-1.94908 94.32661,166.89674 97.76327,165.17872 3.43666,-1.71801 -76.69102,-176.00128 -73.14253,-177.47063 3.54849,-1.46936 69.64801,178.62411 73.28625,177.4031 3.63824,-1.22101 -51.4969,-184.55318 -47.77795,-185.50047 3.71894,-0.94728 43.96992,186.79078 47.743,186.09291 3.77308,-0.69787 -24.70524,-190.63804 -20.8888,-191.05938 3.81644,-0.42133 17.27402,191.22083 21.11212,191.06702 3.8381,-0.15381 1.6203,-192.56663 5.45846,-192.44894 3.83816,0.11769 -9.27787,191.59762 -5.45844,191.96852 3.81944,0.37091 28.88565,-189.93569 32.66947,-189.2988 3.78382,0.6369 -35.49027,188.53996 -31.75583,189.43598 3.73443,0.89601 54.19338,-184.19067 57.85366,-183.033 3.66028,1.15767 -61.67677,181.87553 -58.10227,183.28612 3.5745,1.41058 80.09323,-174.57767 83.55381,-172.92036 3.46057,1.6573 -86.26873,171.23604 -82.93256,173.13791 3.33617,1.90188 103.33484,-162.22047 106.53593,-160.0949 3.20108,2.12557 -109.47388,157.32729 -106.42169,159.66418 3.05219,2.33688 124.97131,-145.67394 127.84305,-143.12832 2.87174,2.54563 -130.27847,141.11514 -127.59467,143.86339 2.6838,2.74824 143.77355,-127.65969 146.26947,-124.73645 2.49592,2.92323 -148.0637,121.6456 -145.78621,124.73489 2.2775,3.08929 159.84204,-106.39593 161.8921,-103.14824 2.05006,3.24769 -164.18736,99.91053 -162.35158,103.28564 1.83579,3.3751 173.79135,-82.70506 175.37612,-79.20796 1.58477,3.4971 -176.13197,75.93147 -174.7811,79.53022 1.35087,3.59876 183.24793,-58.00726 184.3199,-54.32333 1.07196,3.68393 -185.03835,50.6403 -184.22431,54.39615 0.81403,3.75585 189.53473,-31.42412 190.08679,-27.62049 0.55206,3.80364 -190.88239,24.61829 -190.57586,28.44879 0.30654,3.83051 192.60355,-5.65473 192.63249,-1.81464 0.029,3.8401 -192.31248,-2.4209 -192.54646,1.41077 -0.23398,3.83168 191.03357,22.11624 190.52282,25.91946 -0.51075,3.80322 -189.86509,-28.716 -190.63844,-24.95395 -0.77334,3.76205 186.33945,47.56284 185.30947,51.26423 -1.02999,3.70139 -183.94933,-55.26466 -185.23341,-51.64223 -1.28408,3.62243 177.35251,74.07995 175.82429,77.60278 -1.52822,3.52283 -173.70004,-80.27733 -175.47236,-76.86809 -1.77232,3.40924 164.81371,97.39448 162.80734,100.67334 -2.00637,3.27887 -161.05923,-103.57187 -163.30261,-100.45514 -2.24338,3.11674 150.61308,119.02011 148.17107,121.98654 -2.44201,2.96642 -145.51823,-124.85685 -148.17582,-122.07991 -2.6576,2.77694 131.80229,139.36861 128.9683,141.95851 -2.83399,2.5899 -126.42343,-143.96983 -129.43782,-141.59294 -3.01438,2.3769 111.57915,156.61697 108.40884,158.77876 -3.17031,2.16179 -105.5453,-160.40255 -108.86374,-158.4646 -3.31844,1.93796 89.21065,170.4761 85.76752,172.17835 -3.44312,1.70225 -82.0212,-173.80866 -85.56862,-172.33757 -3.54742,1.47108 63.83646,180.87922 60.18954,182.09066 -3.64693,1.21143 -56.91562,-182.58952 -60.63208,-181.62946 -3.71647,0.96005 38.6241,187.7596 34.84742,188.44503 -3.77668,0.68542 -31.1696,-189.43631 -34.98407,-189.01715 -3.81447,0.41916 11.75043,191.89144 7.91391,192.05033 -3.83652,0.1589 -4.3798,-191.33154 -8.22179,-191.42661 -3.84199,-0.0951 -15.17145,191.47943 -18.99113,191.10559 -3.81967,-0.37385 22.85995,-190.9821 19.07491,-191.62704 -3.78505,-0.64494 -41.6343,187.39489 -45.36931,186.49014 -3.73501,-0.90475 48.28998,-184.93037 44.62732,-186.08865 -3.66266,-1.15827 -67.29005,179.43623 -70.85982,178.02261 -3.56978,-1.41362 74.10065,-176.62908 70.63144,-178.28076 -3.46921,-1.65168 -91.20339,168.61379 -94.53833,166.71577 -3.33494,-1.89802 97.50904,-164.64187 94.30283,-166.75812 -3.20621,-2.11625 -114.07744,154.22503 -117.12411,151.89032 -3.04666,-2.33471 119.61966,-150.03953 116.74591,-152.58436 -2.87374,-2.54484 -134.1649,137.13156 -136.85866,134.39384 z"
       inkscape:transform-center-x="-0.35163647"
       inkscape:transform-center-y="-0.16310978" />
    <path
       sodipodi:type="star"
       style="fill:#ff8080"
       id="path3425"
       sodipodi:sides="45"
       sodipodi:cx="175.71429"
       sodipodi:cy="453.79077"
       sodipodi:r1="250.85976"
       sodipodi:r2="2.5085976"
       sodipodi:arg1="0.64805689"
       sodipodi:arg2="0.71787006"
       inkscape:flatsided="false"
       inkscape:rounded="0.02"
       inkscape:randomized="0.002"
       d="m 375.2597,604.94764 c -2.98968,3.96681 -194.10885,-153.24389 -197.38434,-149.50446 -3.27548,3.73943 178.49361,172.44501 174.96793,175.94764 -3.52568,3.50263 -172.217,-178.97819 -175.97308,-175.72327 -3.75608,3.25492 153.45964,195.90292 149.48537,198.88115 -3.97427,2.97823 -145.23397,-200.99764 -149.4051,-198.30039 -4.17114,2.69725 124.21268,214.49654 119.86647,216.89409 -4.34622,2.39756 -115.37183,-218.71114 -119.87288,-216.61085 -4.50105,2.1003 92.46378,229.82839 87.81797,231.59709 -4.64581,1.7687 -83.3391,-233.66012 -88.08539,-232.2054 -4.7463,1.45473 59.70776,241.15538 54.86103,242.25779 -4.84673,1.10241 -50.59837,-242.73883 -55.50211,-241.96428 -4.90374,0.77455 26.06238,247.56363 21.11747,247.99389 -4.9449,0.43027 -16.47418,-247.97348 -21.4431,-247.90165 -4.96893,0.0718 -8.63292,248.57217 -13.59479,248.30985 -4.96186,-0.26233 18.33182,-247.76842 13.40726,-248.3804 -4.92457,-0.61198 -43.18289,244.96761 -48.05916,244.01352 -4.87627,-0.95408 52.04788,-243.16604 47.25312,-244.46328 C 169.92161,454.49143 98.269068,692.63683 93.582094,691.00041 88.895119,689.364 178.84415,458.07386 174.28297,456.11743 169.72178,454.16101 65.331802,679.53641 60.912931,677.26375 56.494061,674.99109 178.19828,458.65898 173.94639,456.09526 169.6945,453.53155 35.335666,661.51027 31.279653,658.63812 27.22364,655.76598 177.54114,458.74752 173.69587,455.60372 169.85059,452.45992 8.0390915,640.28653 4.4119841,636.89794 0.78487678,633.50935 177.64265,459.2893 174.25717,455.65744 170.87169,452.02559 -16.587361,615.40766 -19.70661,611.54318 -22.82586,607.67869 176.74507,459.41505 173.89897,455.34082 171.05287,451.26659 -37.391304,586.49755 -39.945082,582.2365 -42.49886,577.97545 175.79757,459.31197 173.55701,454.8801 c -2.24057,-4.43187 -227.060566,101.45014 -228.993762,96.87719 -1.933195,-4.57295 230.387572,-92.16793 228.778792,-96.86224 -1.60879,-4.6943 -239.027209,67.69468 -240.303751,62.89354 -1.276542,-4.80114 241.360791,-58.89632 240.434921,-63.78005 -0.92587,-4.88373 -245.82785,34.71123 -246.436693,29.78316 -0.608842,-4.92806 246.615793,-25.20073 246.365193,-30.15824 -0.2506,-4.95751 -248.302807,0.20454 -248.212378,-4.7619 0.09043,-4.96643 247.158038,9.95357 247.593548,5.00146 0.4355,-4.95211 -245.126197,-34.76329 -244.344055,-39.66411 0.782141,-4.90083 244.117315,43.6592 245.240875,38.81796 1.12356,-4.84125 -238.678782,-68.7377 -237.205534,-73.48029 1.473247,-4.7426 235.098154,77.94992 236.894124,73.31884 1.79597,-4.63109 -226.450225,-100.7151 -224.354213,-105.21623 2.096013,-4.50113 222.454583,109.7315 224.886493,105.39679 C 176.33249,448.71127 -37.502431,320.86291 -34.792738,316.70501 -32.083045,312.5471 170.94766,456.19967 173.95395,452.2469 176.96024,448.29412 -16.416571,292.2739 -13.14437,288.54256 -9.8721691,284.81122 170.40247,455.7558 173.91319,452.2439 177.42391,448.73199 7.5487601,267.40867 11.292681,264.14954 15.036601,260.8904 169.93405,454.54785 173.90211,451.55842 177.87017,448.569 35.259677,245.90834 39.432191,243.20829 c 4.172514,-2.70006 130.418749,211.02408 134.763649,208.61159 4.3449,-2.4125 -108.023799,-223.36873 -103.510357,-225.4453 4.513442,-2.07657 99.539327,226.9655 104.176277,225.18288 4.63696,-1.78263 -76.991498,-236.82513 -72.23798,-238.28106 4.75352,-1.45593 68.10497,239.58183 72.94648,238.48236 4.84152,-1.09947 -43.71607,-245.38764 -38.81039,-246.15008 4.90567,-0.76244 33.82872,245.85209 38.77761,245.41647 4.94889,-0.43562 -8.1181,-247.57234 -3.14916,-247.64398 4.96895,-0.0716 -1.22512,247.40362 3.73437,247.66821 4.95949,0.26459 25.84937,-247.19946 30.77889,-246.57716 4.92953,0.62231 -35.8358,245.4853 -30.96027,246.43838 4.87554,0.95309 60.43264,-240.84796 65.23196,-239.56435 4.79932,1.2836 -68.99714,237.95687 -64.30389,239.57511 4.69325,1.61823 92.64914,-230.26067 97.20856,-228.29826 4.55942,1.96242 -101.73678,226.984 -97.32449,229.25984 4.41228,2.27584 124.54963,-214.94819 128.80197,-212.39062 4.25235,2.55756 -132.18971,209.50946 -128.12365,212.35538 4.06607,2.84593 152.27907,-196.26211 156.12842,-193.12626 3.84935,3.13586 -159.37773,190.28475 -155.75436,193.68839 3.62337,3.40364 178.47019,-173.17483 181.85618,-169.53454 3.38599,3.64029 -185.58419,165.74967 -182.45888,169.61107 3.12532,3.86139 201.58509,-145.89653 204.4118,-141.81355 2.82671,4.08298 -206.3449,138.06164 -203.8088,142.32704 2.53609,4.2654 219.32676,-117.1808 221.57943,-112.74884 2.25267,4.43197 -223.42066,108.45927 -221.49939,113.04421 1.92127,4.58495 233.90543,-85.22178 235.50636,-80.51489 1.60094,4.70689 -236.939,75.16404 -235.663,79.96422 1.276,4.80018 243.43156,-50.98841 244.3616,-46.106 0.93005,4.88242 -244.46239,42.19228 -243.86198,47.12366 0.60041,4.93138 248.15221,-17.5163 248.39162,-12.55685 0.23941,4.95945 -248.26625,7.26417 -248.34981,12.23088 -0.0836,4.9667 247.58008,17.49433 247.12644,22.43928 -0.45363,4.94496 -246.19997,-26.13162 -246.99014,-21.22378 -0.79017,4.90785 242.85154,50.9382 241.73323,55.77843 -1.1183,4.84023 -240.0795,-60.25919 -241.54683,-55.51597 -1.46733,4.74322 232.85337,84.9879 231.06107,89.61991 -1.7923,4.632 -229.57341,-94.07416 -231.67353,-89.57312 -2.10012,4.50103 219.77802,116.52282 217.35657,120.86385 -2.42145,4.34104 -214.9301,-125.04051 -217.65391,-120.89052 -2.7238,4.14999 200.56552,146.04651 197.57584,150.01332 z"
       inkscape:transform-center-x="-0.19083047"
       inkscape:transform-center-y="0.20932909"
       inkscape:export-xdpi="134.61456"
       inkscape:export-ydpi="134.61456" />
  </g>
  <g
     inkscape:groupmode="layer"
     id="layer2"
     inkscape:label="Layer 2" />
</svg>
